# xmcd
#
# Track frame offsets: 
#        150
#        15683
#        35203
#        48204
#        67948
#        85977
#        102637
#        121068
#        135631
#        152329
#        168670
#
# Disc length: 2691 seconds
#
# Revision: 1
# Processed by: cddbd v1.5.2PL0 Copyright (c) Steve Scherf et al.
# Submitted via: ExactAudioCopyFreeDBPlugin 1.0
#
DISCID=8b0a810b
DTITLE=Bill Perry - Raw Deal
DYEAR=2004
DGENRE=Blues
TTITLE0=Bluesman
TTITLE1=Big Ass Green Van
TTITLE2=Harlem Child
TTITLE3=Live On
TTITLE4=Another Man
TTITLE5=Terrorists
TTITLE6=Going Down To Memphis
TTITLE7=Til the Money Runs Out
TTITLE8=Paper Dragons
TTITLE9=Man on the Side
TTITLE10=Gotta Serve Somebody
EXTD=
EXTT0=
EXTT1=
EXTT2=
EXTT3=
EXTT4=
EXTT5=
EXTT6=
EXTT7=
EXTT8=
EXTT9=
EXTT10=
PLAYORDER=
